<svg xmlns="http://www.w3.org/2000/svg" xml:space="preserve" width="161.77mm" height="58.9676mm" version="1.1" style="shape-rendering:geometricPrecision; text-rendering:geometricPrecision; image-rendering:optimizeQuality; fill-rule:evenodd; clip-rule:evenodd"
viewBox="0 0 9200.6 3353.77"
 xmlns:xlink="http://www.w3.org/1999/xlink">
 <defs>
  <style type="text/css">
   <![CDATA[
    .fil3 {fill:#FEFEFE}
    .fil2 {fill:#999798}
    .fil4 {fill:#61098A}
    .fil1 {fill:#999798;fill-rule:nonzero}
    .fil0 {fill:#61098A;fill-rule:nonzero}
   ]]>
  </style>
   <mask id="id0">
  <linearGradient id="id1" gradientUnits="userSpaceOnUse" x1="1399.93" y1="3139.28" x2="1487.73" y2="1588.19">
   <stop offset="0" style="stop-opacity:1; stop-color:white"/>
   <stop offset="0.529412" style="stop-opacity:-72.7882; stop-color:white"/>
   <stop offset="1" style="stop-opacity:0; stop-color:white"/>
  </linearGradient>
    <rect style="fill:url(#id1)" x="198.32" y="1267.24" width="2176.14" height="1065.17"/>
   </mask>
   <mask id="id2">
  <linearGradient id="id3" gradientUnits="userSpaceOnUse" x1="1274.79" y1="266.06" x2="1401.36" y2="989.34">
   <stop offset="0" style="stop-opacity:1; stop-color:white"/>
   <stop offset="1" style="stop-opacity:0; stop-color:white"/>
  </linearGradient>
    <rect style="fill:url(#id3)" x="565.21" y="593" width="2454.41" height="1066.38"/>
   </mask>
 </defs>
 <g id="Camada_x0020_1">
  <metadata id="CorelCorpID_0Corel-Layer"/>
  <path class="fil0" d="M3319.02 2399.23c0,-92.57 0,-185.15 0,-277.72 214.22,69.43 431.42,103.85 650.4,103.85 290.78,0 436.17,-86.64 436.17,-260.51 0,-162.01 -101.48,-243.3 -303.84,-243.3l-261.11 0c-394.03,0 -591.05,-179.81 -591.05,-538.83 0,-347.75 253.4,-521.63 759.59,-521.63 217.78,0 434.39,29.08 648.62,86.64l0 278.32c-214.23,-69.43 -430.83,-104.44 -648.62,-104.44 -303.24,0 -455.16,87.23 -455.16,261.11 0,162 95.54,243.3 286.63,243.3l261.11 0c417.18,0 625.47,179.81 625.47,538.83 0,347.75 -252.8,521.62 -757.8,521.62 -164.97,0 -328.92,-16.51 -491.35,-49.5 -53.18,-10.81 -106.2,-23.38 -159.04,-37.73zm1596.56 -464.06c0,-374.45 246.86,-561.38 740.59,-561.38 159.04,0 317.49,11.87 476.52,35.01l0 -172.09c0,-210.08 -164.38,-315.11 -491.95,-315.11 -188.12,0 -380.39,29.08 -577.4,87.23l0 -261.11c197.01,-57.56 389.28,-86.64 577.4,-86.64 542.39,0 813.59,188.71 813.59,566.72l0 1258.66 -181 0 -110.97 -180.99c-182.19,120.46 -380.39,180.99 -594.61,180.99 -434.99,0 -652.18,-183.96 -652.18,-551.3zm740.59 -300.86c-279.5,0 -418.96,98.51 -418.96,295.53 0,197.01 110.38,295.53 330.54,295.53 222.53,0 410.65,-58.75 564.94,-176.84l0 -379.2c-159.03,-23.14 -317.48,-35.01 -476.52,-35.01zm1516.45 -973.22l0 1825.38 -321.64 0 0 -1825.38 321.64 0zm0 -661.08l0 304.43 -321.64 0 0 -304.43 321.64 0zm718.28 2168.38c105.63,33.23 233.81,50.44 384.54,50.44 405.91,0 608.26,-231.43 608.26,-693.71 0,-390.48 -183.37,-585.72 -550.7,-585.72 -167.35,0 -314.52,30.86 -442.1,93.76l0 1135.23zm-321.04 -2168.38l321.04 0 0 747.72c138.27,-57.56 286.03,-86.64 443.88,-86.64 576.81,0 865.82,291.97 865.82,875.9 0,633.19 -303.24,949.48 -909.73,949.48 -261.7,0 -502.04,-24.92 -721.01,-74.77l0 -2411.69z"/>
  <path class="fil1" d="M3249.57 2818.01l100.01 0 50.9 273.82 91.06 -273.82 85.05 0 98.22 273.82 44.12 -273.82 103.47 0 -102.7 393.41 -93.23 0 -92.6 -279.19 -93.62 279.19 -94.77 0 -95.92 -393.41zm859.6 0c119.45,0 179.18,60.88 179.18,182.77 0,16.24 -1.15,32.48 -3.45,48.72l-261.16 0c0,55.51 40.67,83.26 122.14,83.26 39.78,0 79.43,-3.83 119.2,-11.25l0 78.65c-34.79,7.55 -77,11.26 -126.62,11.26 -142.73,0 -213.97,-67.02 -213.97,-201.18 0,-128.15 61.52,-192.23 184.68,-192.23zm-85.44 162.56l167.93 0 0 -2.95c0,-54.48 -27.5,-81.72 -82.49,-81.72 -52.44,0 -80.96,28.27 -85.44,84.67zm499.2 139.79c22.64,7.29 48.98,10.87 79.04,10.87 59.85,0 89.91,-42.34 89.91,-127 0,-69.19 -25.83,-103.85 -77.63,-103.85 -33.38,0 -63.95,6.78 -91.32,20.34l0 199.64zm-99.38 -444.82l99.38 0 0 172.4c29.67,-19.95 62.8,-29.93 99.25,-29.93 111.91,0 167.8,62.93 167.8,188.78 0,136.46 -63.95,204.63 -192.1,204.63 -53.97,0 -112.03,-5.37 -174.32,-16.11l0 -519.77zm707.93 78.78l27.75 0 7.04 63.69 118.05 0 0 33.64 -114.6 0 0 248.5c0,51.67 18.93,77.5 56.91,77.5l57.68 0 0 33.77 -56.91 0c-63.95,0 -95.92,-35.3 -95.92,-106.03l0 -351.07zm462.49 63.69c107.69,0 161.53,59.6 161.53,178.67 0,8.57 -0.26,17.39 -0.77,26.6l-298.63 0c0,102.96 54.48,154.37 163.32,154.37 44.77,0 84.41,-6.26 119.2,-18.67l0 33.64c-34.78,12.54 -74.43,18.8 -119.2,18.8 -135.05,0 -202.71,-67.02 -202.71,-201.18 0,-128.15 59.09,-192.23 177.26,-192.23zm-137.87 170.1l261.54 0c-1.54,-91.44 -42.72,-137.1 -123.67,-137.1 -87.48,0 -133.39,45.66 -137.87,137.1zm752.81 212.05c-32.49,7.55 -67.4,11.26 -104.88,11.26 -132.37,0 -198.62,-68.04 -198.62,-204.25 0,-126.1 66.25,-189.16 198.62,-189.16 37.47,0 72.39,3.71 104.88,11.26l0 33.64c-34.92,-7.42 -68.68,-11.25 -101.16,-11.25 -106.16,0 -159.23,51.92 -159.23,155.52 0,113.7 53.08,170.48 159.23,170.48 32.48,0 66.25,-3.71 101.16,-11.25l0 33.76zm159.37 11.26l0 -393.41 28.14 0 4.86 50.14c50.14,-33.38 99.38,-50.14 147.59,-50.14 95.67,0 143.5,41.31 143.5,124.06l0 269.35 -39.39 0 0 -270.5c0,-58.45 -35.3,-87.74 -106.03,-87.74 -47.19,0 -93.62,16.63 -139.41,49.88l0 308.36 -39.27 0zm532.19 -198.24c0,112.16 48.09,168.31 144.26,168.31 96.18,0 144.27,-56.15 144.27,-168.31 0,-110.12 -48.09,-165.24 -144.27,-165.24 -96.18,0 -144.26,55.12 -144.26,165.24zm-39.39 1.54c0,-133.65 61.26,-200.42 183.65,-200.42 122.4,0 183.53,66.77 183.53,200.42 0,133.39 -61.13,200.03 -183.53,200.03 -121.88,0 -183.14,-66.63 -183.65,-200.03zm582.84 -339.18l0 535.88 -39.39 0 0 -535.88 39.39 0zm215.53 337.64c0,112.16 48.09,168.31 144.26,168.31 96.18,0 144.27,-56.15 144.27,-168.31 0,-110.12 -48.09,-165.24 -144.27,-165.24 -96.18,0 -144.26,55.12 -144.26,165.24zm-39.39 1.54c0,-133.65 61.26,-200.42 183.65,-200.42 122.4,0 183.53,66.77 183.53,200.42 0,133.39 -61.13,200.03 -183.53,200.03 -121.88,0 -183.14,-66.63 -183.65,-200.03zm821.49 -152.45c-36.2,-6.01 -71.75,-9.08 -106.79,-9.08 -106.15,0 -159.23,52.83 -159.23,158.46 0,108.2 49.62,162.3 148.74,162.3 35.94,0 75.07,-6.78 117.28,-20.21l0 -291.47zm39.39 349.15c0,94.9 -57.81,142.35 -173.55,142.35 -48.47,0 -91.32,-6.27 -128.79,-18.67l0 -33.77c38.11,12.54 81.34,18.8 129.56,18.8 89.01,0 133.39,-36.32 133.39,-108.71l0 -18.8c-44.38,12.54 -83.65,18.8 -117.66,18.8 -124.32,0 -186.6,-66.38 -186.6,-199 0,-129.56 66.89,-194.4 200.54,-194.4 50.65,0 98.35,5.37 143.11,16.12l0 377.29zm238.03 -535.88l0 45.02 -46.81 0 0 -45.02 46.81 0zm-3.71 142.47l0 393.41 -39.39 0 0 -393.41 39.39 0zm172.43 282.14c0,-78.14 51.93,-117.28 155.91,-117.28 36.7,0 75.97,2.43 117.66,7.42l0 -48.22c0,-60.24 -37.86,-90.42 -113.57,-90.42 -42.97,0 -85.69,6.26 -128.15,18.8l0 -33.76c42.46,-12.41 85.18,-18.68 128.15,-18.68 101.93,0 152.83,40.67 152.83,122.14l0 271.26 -23.92 0 -9.08 -39.01c-49.11,25.96 -96.82,39.01 -143.11,39.01 -91.19,0 -136.72,-37.09 -136.72,-111.27zm155.91 -83.51c-77.76,0 -116.51,27.37 -116.51,82.37 0,52.44 32.36,78.65 97.33,78.65 47.96,0 93.62,-12.66 136.85,-38.24l0 -115.36c-41.69,-4.99 -80.96,-7.42 -117.66,-7.42z"/>
  <path class="fil2" d="M2003.12 1186.09c8.2,9.35 16.07,18.92 23.6,28.64 -7.54,-9.73 -15.41,-19.28 -23.6,-28.64zm135.05 259.72c12.13,49.34 18.19,99.91 18.19,150.5 0,159.75 -60.44,319.35 -181.32,440.23 -120.87,120.86 -280.48,181.3 -440.21,181.3 -159.74,0 -319.33,-60.44 -440.22,-181.3l-776.3 -776.25c-11.08,-9.24 -22.56,-17.81 -34.36,-25.78l-283.96 283.96 806.34 806.33c200.52,200.52 464.58,300.79 728.5,300.79 263.91,0 527.98,-100.28 728.49,-300.79 137.75,-137.74 228.18,-305.49 271.29,-482.58l-396.45 -396.42z"/>
  <path class="fil3" style="mask:url(#id0)" d="M2201.34 1573.1c0.26,7.73 0.39,15.48 0.39,23.21 0,177.35 -69.05,346.74 -194.6,472.29 -125.54,125.55 -294.95,194.61 -472.28,194.61 -177.35,0 -346.74,-69.04 -472.29,-194.61l-774.8 -774.74c-11.73,-9.66 -23.93,-18.54 -36.52,-26.62l-52.91 52.91 755.58 731.35c156.7,151.68 368.1,249.33 589.42,274.51 221.3,25.18 432.71,-24.38 589.39,-140.38 146.54,-108.53 231.4,-264.94 241.76,-439.42l-173.13 -173.12z"/>
  <path class="fil4" d="M932.91 1746.8c-12.14,-49.32 -18.19,-99.9 -18.19,-150.49 0,-159.74 60.42,-319.33 181.31,-440.22 120.88,-120.88 280.47,-181.31 440.22,-181.31 159.76,0 319.34,60.43 440.21,181.31l776.31 776.25c3.22,2.68 6.48,5.32 9.77,7.89l287.33 -287.32 -785.12 -785.1c-200.51,-200.51 -464.59,-300.76 -728.5,-300.76 -263.9,0 -527.99,100.26 -728.5,300.76 -137.74,137.75 -228.16,305.5 -271.28,482.59l396.45 396.4z"/>
  <path class="fil3" style="mask:url(#id2)" d="M3019.62 1659.39l-773.23 -773.22c-188.83,-188.84 -443.27,-293.16 -710.13,-293.16 -266.85,0 -521.32,104.33 -710.15,293.16 -126.52,126.51 -216.12,283.33 -260.88,456.28l270.52 270.52c-27.63,-376.25 90.41,-600.87 439.57,-721.01 121.93,-41.96 252.3,-63.91 385.51,-63.91 290.47,0 567.43,104.33 772.99,293.16l585.82 538.19z"/>
 </g>
</svg>
